<svg width="73" height="81" viewBox="0 0 73 81" fill="none" xmlns="http://www.w3.org/2000/svg">
<path d="M67.4 16.1L42.1 1.5C38.6 -0.5 34.3 -0.5 30.9 1.5L5.6 16.1C2.1 18.1 0 21.8 0 25.8V55C0 59 2.1 62.7 5.6 64.7L30.9 79.3C34.4 81.3 38.7 81.3 42.1 79.3L67.4 64.7C70.9 62.7 73 59 73 55V25.8C73 21.8 70.9 18.1 67.4 16.1Z" fill="#F2F2F2"/>
<path d="M28.6 37.9L27.7 52.2L27.1 61.6L27.3 62L34.4 64.6L35.5 37.9H28.6Z" fill="#7617E4"/>
<path d="M26.7 34.7L25.9 32.5L23.5 52.9L26.3 59.7L27.7 37.5L26.7 34.7Z" fill="#7617E4"/>
<path d="M28.5 37H35.8L39.2 32.9L37.4 17.4L34.3 17.5L26.2 29.8L26.1 30.4L26.5 31.4L28.5 37Z" fill="#7617E4"/>
<path d="M40.1 34.2L39.7 33.8L37.7 36.2L36.4 37.6L36.3 41.2L35.3 64.7L45.5 62.8L45 39.6L40.1 34.2Z" fill="#7617E4"/>
<path d="M67.4 16.1L42.1 1.5C38.6 -0.5 34.3 -0.5 30.9 1.5L5.6 16.1C2.1 18.1 0 21.8 0 25.8V55C0 59 2.1 62.7 5.6 64.7L30.9 79.3C34.4 81.3 38.7 81.3 42.1 79.3L67.4 64.7C70.9 62.7 73 59 73 55V25.8C73 21.8 70.9 18.1 67.4 16.1ZM51.7 59.7C51.7 60 51.6 60.2 51.4 60.4L46.6 64.4C46.5 64.5 46.3 64.6 46.2 64.6L35 66.6C34.9 66.6 34.9 66.6 34.8 66.6C34.7 66.6 34.6 66.6 34.5 66.5L26.3 63.6C26.1 63.5 25.9 63.3 25.8 63.1L21.8 53.4C21.7 53.3 21.7 53.1 21.7 52.9L24.5 29.3C24.5 29.2 24.6 29 24.6 28.9L33 16.1C33.2 15.8 33.4 15.7 33.8 15.7L37.8 15.6C38 15.6 38.1 15.6 38.3 15.7L41.2 17.3C41.3 17.4 41.4 17.5 41.5 17.6L51.7 31.7C51.8 31.9 51.9 32 51.9 32.2L51.7 59.7Z" fill="#7617E4"/>
<path d="M38.4 17.9L40.2 32.9L45.5 38.7L49.7 33L49.9 32.7V32.5L40 18.8L38.4 17.9Z" fill="#7617E4"/>
<path d="M46.3 58.9L46.4 62.1L49.9 59.2V34.2L46 39.5L46.3 58.9Z" fill="#7617E4"/>
</svg>
