<svg width="303" height="81" viewBox="0 0 303 81" fill="none" xmlns="http://www.w3.org/2000/svg">
<g clip-path="url(#clip0_1_13)">
<path d="M112.3 54.8L106.4 34L100.7 54.9H97.4L89.6 29L93.3 28.5L99.1 50L104.6 28.8H108.2L114 50L119.5 28.8H123.1L115.6 55H112.3V54.8ZM133.9 55.3C132 55.3 130.4 54.9 129 54.1C127.6 53.3 126.5 52.1 125.8 50.6C125.1 49.1 124.7 47.4 124.7 45.4C124.7 43.5 125.1 41.8 125.9 40.3C126.7 38.8 127.8 37.7 129.2 36.8C130.6 36 132.3 35.6 134.2 35.6C136.1 35.6 137.7 36 139.1 36.8C140.5 37.6 141.6 38.8 142.3 40.3C143 41.8 143.4 43.5 143.4 45.5C143.4 47.4 143 49.1 142.2 50.6C141.4 52.1 140.3 53.2 138.9 54.1C137.5 54.9 135.8 55.3 133.9 55.3ZM139.6 45.5C139.6 43.5 139.1 41.9 138.1 40.6C137.1 39.4 135.8 38.7 134.1 38.7C132.4 38.7 131.1 39.3 130 40.6C129 41.9 128.5 43.4 128.4 45.3C128.4 47.3 128.9 48.9 129.9 50.2C130.9 51.4 132.2 52.1 133.9 52.1C135.6 52.1 136.9 51.5 138 50.2C139 49 139.6 47.4 139.6 45.5ZM156.4 38.7C155.5 38.7 154.6 39 153.6 39.5C152.6 40.1 151.6 40.8 150.6 41.6V54.8H146.9V36.1H149.5L150.2 38.6C151.2 37.7 152.3 37 153.6 36.4C154.9 35.8 156.1 35.5 157.3 35.5C159.3 35.5 160.8 36.1 161.8 37.4C162.8 38.7 163.3 40.4 163.3 42.5V54.8H159.6V42.8C159.6 41.4 159.4 40.4 158.9 39.7C158.4 39 157.6 38.7 156.4 38.7ZM183.6 54.8H181.5L180.8 53.4C180 54 179.2 54.5 178.2 54.8C177.3 55.1 176.5 55.3 175.8 55.3C173.9 55.3 172.3 54.9 170.9 54.1C169.5 53.3 168.4 52.1 167.7 50.6C167 49.1 166.6 47.3 166.6 45.3C166.6 43.4 167 41.7 167.8 40.2C168.6 38.7 169.7 37.6 171.1 36.8C172.5 36 174.1 35.6 176 35.6C176.5 35.6 177.2 35.7 177.9 35.9C178.6 36.1 179.3 36.4 180 36.8V28L183.7 27.6V54.8H183.6ZM175.8 52.2C176.6 52.2 177.4 52.1 178 51.8C178.6 51.5 179.3 51.1 179.8 50.6V40.3C179.2 39.8 178.6 39.4 177.9 39.2C177.2 39 176.5 38.9 175.7 38.9C174 38.9 172.6 39.5 171.7 40.7C170.7 41.9 170.2 43.5 170.2 45.4C170.2 47.5 170.7 49.1 171.6 50.4C172.7 51.5 174 52.2 175.8 52.2ZM196.4 35.6C199.1 35.6 201.1 36.5 202.5 38.3C203.9 40.1 204.6 42.4 204.6 45.2V46.2H191.4C191.6 48 192.1 49.5 193.2 50.5C194.2 51.6 195.7 52.1 197.7 52.1C198.7 52.1 199.5 52 200.3 51.7C201 51.5 202.1 51 203.4 50.4L204.6 53.1C202.3 54.5 200.1 55.1 197.8 55.1C194.5 55.1 192 54.2 190.3 52.4C188.6 50.6 187.7 48.2 187.7 45.2C187.7 43.3 188.1 41.6 188.8 40.1C189.5 38.6 190.6 37.5 191.9 36.6C193.2 35.7 194.5 35.6 196.4 35.6ZM196.2 38.8C194.8 38.8 193.7 39.2 192.8 40.1C192 41 191.5 42.2 191.3 43.8H200.9C200.5 40.5 198.9 38.8 196.2 38.8ZM218.3 39.1C217.3 39.1 216.2 39.4 215 40.1C213.8 40.8 212.7 41.5 211.7 42.5V54.9H208V36.1H210.1L211.3 39.1C212.2 38.4 213.2 37.7 214.4 37C215.6 36.4 216.6 36 217.5 36L218.3 39.1Z" fill="#7617E4"/>
<path d="M232.6 27.4C233.5 27.4 234.7 27.5 236 27.8C237.3 28.1 238.5 28.5 239.5 29.1L238 32.7L237 32.4C236 32.1 235.2 31.9 234.6 31.8C234 31.7 233.3 31.6 232.4 31.6C231 31.6 229.8 32 228.7 32.8C227.6 33.6 226.7 34.7 226.1 36.1C225.5 37.5 225.2 39.2 225.2 41.1C225.2 42.8 225.5 44.4 226 45.8C226.5 47.2 227.4 48.4 228.4 49.2C229.4 50 230.7 50.5 232.1 50.5C234 50.5 235.9 50.1 237.8 49.3L239.7 53C238.7 53.5 237.5 53.9 236.1 54.2C234.7 54.5 233.4 54.7 232.3 54.7C229.7 54.7 227.4 54.1 225.5 52.9C223.6 51.7 222.2 50.1 221.3 48.1C220.4 46.1 219.9 43.8 219.9 41.2C219.9 38.5 220.4 36.2 221.5 34.1C222.5 32 224 30.4 225.9 29.2C227.9 28 230.1 27.4 232.6 27.4ZM254.1 39.5C253.3 39.5 252.2 39.8 251 40.4C249.8 41 248.6 41.8 247.5 42.7V54.1H242.5V35.5H245.1L246.8 38.6C247.7 37.8 248.7 37.1 250 36.4C251.2 35.8 252.3 35.4 253.2 35.4L254.1 39.5ZM263.9 39.6C263.1 39.6 262.1 39.7 261.1 40C260.1 40.2 259.2 40.5 258.5 40.9L257.2 36.7C257.9 36.3 258.9 35.9 260.4 35.5C261.9 35.2 263 35 263.9 35C265.4 35 266.7 35.3 268 35.9C269.2 36.5 270.2 37.3 270.9 38.4C271.6 39.5 272 40.6 272 41.9V54.2H268.7L267.9 52.2C266.3 53.8 264.7 54.7 263 54.7C260.8 54.7 259.1 54.2 258 53.1C256.9 52 256.3 50.5 256.3 48.7C256.3 46.8 256.9 45.3 258.2 44.3C259.5 43.3 261.2 42.7 263.4 42.7H267.1C267.1 41.8 266.8 41 266.3 40.5C265.5 39.9 264.8 39.6 263.9 39.6ZM263.1 46C262.3 46 261.6 46.3 261.1 46.8C260.6 47.3 260.3 47.9 260.3 48.6C260.3 49.2 260.5 49.7 261 50.1C261.4 50.5 262 50.7 262.7 50.7C264.2 50.7 265.6 50.1 266.8 48.9V46H263.1ZM277.2 39.4H274.3V35.6H277.2V34.2C277.2 32 277.8 30.3 279.1 29.1C280.4 27.9 282.2 27.3 284.4 27.3C285 27.3 285.7 27.4 286.4 27.6C287.1 27.8 287.7 28.1 288.1 28.4L286.7 32C285.9 31.7 285.2 31.5 284.6 31.5C283.8 31.5 283.1 31.8 282.7 32.4C282.3 33 282.1 33.8 282.1 34.8V35.5H285.6L287.2 39.3H282.1V63H277.1V39.4H277.2ZM296.1 35.5H299.5L301 39.3H296.1V47.2C296.1 48.2 296.3 49 296.8 49.6C297.3 50.2 297.9 50.5 298.8 50.5C299.5 50.5 300.1 50.3 300.8 50L302.3 53.6C301.9 53.9 301.3 54.2 300.6 54.4C299.8 54.6 299.2 54.7 298.5 54.7C296.2 54.7 294.3 54.1 293 52.9C291.7 51.7 291 50.1 291 47.9V39.1H288.5V35.3H291V30.9L296 30V35.5H296.1Z" fill="#7617E4"/>
<path d="M28.6 37.9L27.7 52.2L27.1 61.6L27.3 62L34.4 64.6L35.5 37.9H28.6Z" fill="#7617E4"/>
<path d="M26.7 34.7L25.9 32.5L23.5 52.9L26.3 59.7L27.7 37.5L26.7 34.7Z" fill="#7617E4"/>
<path d="M28.5 37H35.8L39.2 32.9L37.4 17.4L34.3 17.5L26.2 29.8L26.1 30.4L26.5 31.4L28.5 37Z" fill="#7617E4"/>
<path d="M40.1 34.2L39.7 33.8L37.7 36.2L36.4 37.6L36.3 41.2L35.3 64.7L45.5 62.8L45 39.6L40.1 34.2Z" fill="#7617E4"/>
<path d="M67.4 16.1L42.1 1.5C38.6 -0.5 34.3 -0.5 30.9 1.5L5.6 16.1C2.1 18.1 0 21.8 0 25.8V55C0 59 2.1 62.7 5.6 64.7L30.9 79.3C34.4 81.3 38.7 81.3 42.1 79.3L67.4 64.7C70.9 62.7 73 59 73 55V25.8C73 21.8 70.9 18.1 67.4 16.1ZM51.7 59.7C51.7 60 51.6 60.2 51.4 60.4L46.6 64.4C46.5 64.5 46.3 64.6 46.2 64.6L35 66.6C34.9 66.6 34.9 66.6 34.8 66.6C34.7 66.6 34.6 66.6 34.5 66.5L26.3 63.6C26.1 63.5 25.9 63.3 25.8 63.1L21.8 53.4C21.7 53.3 21.7 53.1 21.7 52.9L24.5 29.3C24.5 29.2 24.6 29 24.6 28.9L33 16.1C33.2 15.8 33.4 15.7 33.8 15.7L37.8 15.6C38 15.6 38.1 15.6 38.3 15.7L41.2 17.3C41.3 17.4 41.4 17.5 41.5 17.6L51.7 31.7C51.8 31.9 51.9 32 51.9 32.2L51.7 59.7Z" fill="#7617E4"/>
<path d="M38.4 17.9L40.2 32.9L45.5 38.7L49.7 33L49.9 32.7V32.5L40 18.8L38.4 17.9Z" fill="#7617E4"/>
<path d="M46.3 58.9L46.4 62.1L49.9 59.2V34.2L46 39.5L46.3 58.9Z" fill="#7617E4"/>
</g>
<defs>
<clipPath id="clip0_1_13">
<rect width="303" height="81" fill="white"/>
</clipPath>
</defs>
</svg>
