<?xml version="1.0" encoding="utf-8"?>
<!-- Generator: Adobe Illustrator 22.0.1, SVG Export Plug-In . SVG Version: 6.00 Build 0)  -->
<svg version="1.1" id="Layer_1" xmlns="http://www.w3.org/2000/svg" xmlns:xlink="http://www.w3.org/1999/xlink" x="0px" y="0px"
	 viewBox="0 0 213.9 213.3" style="enable-background:new 0 0 213.9 213.3;" xml:space="preserve">
<style type="text/css">
	.st0{fill:#FFFFFF;}
</style>
<g>
	<g>
		<path class="st0" d="M107.3,0.1C48.3,0.1,0.6,47.8,0.6,106.8c0,58.9,47.8,106.7,106.7,106.7c58.9,0,106.7-47.8,106.7-106.7
			C214,47.8,166.2,0.1,107.3,0.1z M107.3,207.1c-55.4,0-100.4-44.9-100.4-100.4C6.9,51.3,51.8,6.4,107.3,6.4s100.4,44.9,100.4,100.4
			C207.7,162.2,162.7,207.1,107.3,207.1z"/>
	</g>
	<g>
		<path class="st0" d="M107.3,15c23.9,0,45.7,9.2,62.1,24.2c-8-0.2-16,4.5-16.3,15.4c-0.7,22,26.4,26.7,11.8,71.1l-12,36.7L120,65.7
			c-0.5-1.5,0.1-2.3,1.9-2.3h9.3c0.5,0,0.9-0.4,0.9-0.9V57c0-0.5-0.4-0.9-0.9-0.9c-17.6,0.8-35,0.8-52.4,0c-0.5,0-0.9,0.4-0.9,0.9
			v5.5c0,0.5,0.4,0.9,0.9,0.9h9.3c2.1,0,2.7,0.7,3.1,2l13.5,36.9l-20.3,61.2L51.1,65.3c-0.4-1.2,0.1-1.9,1.3-1.9H63
			c0.5,0,0.9-0.4,0.9-0.9V57c0-0.5-0.4-0.9-0.9-0.9c-11.1,0.6-22.3,0.7-32.8,0.8C46.6,31.7,75,15,107.3,15L107.3,15L107.3,15z"/>
	</g>
	<g>
		<path class="st0" d="M68,189.7c-31-14.7-52.5-46.3-52.5-83c0-13.6,3-26.5,8.2-38.1L68,189.7L68,189.7L68,189.7z"/>
	</g>
	<g>
		<path class="st0" d="M188,63.1c7.1,13,11.1,27.9,11.1,43.7c0,34.7-19.3,64.9-47.7,80.5l28.6-81.1C184.4,93.7,188.5,76.7,188,63.1
			L188,63.1L188,63.1z"/>
	</g>
	<g>
		<path class="st0" d="M138,193.3c-9.6,3.4-19.9,5.3-30.7,5.3c-9.3,0-18.2-1.4-26.7-3.9l28.3-81L138,193.3L138,193.3L138,193.3z"/>
	</g>
</g>
</svg>
