<svg width="100%" viewBox="0 0 718 141"  fill="none" xmlns="http://www.w3.org/2000/svg">
  <path
    d="M145.8 112.5C146.3 113 147.1 112.4 146.8 111.8L92.9 18.6L82.7 0.999997C82.3 0.199997 81.6 0.199997 81.2 0.199997C80.8 0.199997 80.2 0.399997 79.9 1.2L65.3 50.2C63 57.9 68.7 65.6 76.7 65.6H91.4C99.9 65.6 108 69.3 113.6 75.7L145.8 112.5Z"
    fill="black" />
  <path
    d="M55.2 53.4L66.6 15.3C66.8 14.6 65.9 14.2 65.5 14.8L0.199994 127.9C-0.200006 128.7 0.0999944 129.3 0.399994 129.7C0.699994 130.1 1.29999 130.5 2.19999 130.1L2.39999 130L60.3 108.7C67.2 106.1 70.2 98 66.5 91.5L57.9 76.5C53.8 69.5 52.8 61.1 55.2 53.4Z"
    fill="black" />
  <path
    d="M136.2 138.6H153.5C154.3 138.6 154.7 138 154.9 137.7C155 137.4 155.2 136.7 154.7 136.1L111.1 86.1C105.7 79.9 95.9 80.9 91.8 88L83.5 102.4C80 108.4 74.6 112.9 68.1 115.3L7.39998 137.5C6.79998 137.7 6.89998 138.6 7.59998 138.6H136.2Z"
    fill="black" />
  <path
    d="M247.7 6.5C243 6.5 238.7 9.3 236.9 13.7L181.7 138H195.9L211.2 103.6H270.5C272.1 103.6 273.5 102.7 274.1 101.3L279 90.2H217.1L246.6 23.8C247 22.9 248.3 22.9 248.7 23.8L299.5 138H313.7L258.5 13.7C256.7 9.3 252.5 6.5 247.7 6.5Z"
    fill="black" />
  <path
    d="M508.8 0C469.9 0 438.3 31.6 438.3 70.5C438.3 109.4 469.9 141 508.8 141C547.7 141 579.3 109.4 579.3 70.5C579.3 31.6 547.6 0 508.8 0ZM566.5 70.5C566.5 102.4 540.6 128.3 508.7 128.3C476.8 128.3 451 102.4 451 70.5C451 38.6 476.9 12.7 508.8 12.7C540.7 12.7 566.5 38.7 566.5 70.5Z"
    fill="black" />
  <path
    d="M434.7 3.2H419.3L379.8 62C379 63.2 377.1 63.2 376.3 62L336.7 3.2H321.3L365.7 69.1C366.3 70 366.3 71.1 365.7 72L321.3 137.9H336.7L376.2 79.2C377 78 378.9 78 379.7 79.2L419.2 137.9H434.6L390.3 72C389.7 71.1 389.7 70 390.3 69.1L434.7 3.2Z"
    fill="black" />
  <path
    d="M705.3 3.2V117L622.5 7.3C619.8 3.9 615.6 2.2 611.3 2.7C605.1 3.4 600.4 8.9 600.4 15.3V137.8H613.1V16L705 137.8H718V3.2H705.3Z"
    fill="black" />
</svg>