<svg width="422" height="222" viewBox="0 0 422 222" fill="none" xmlns="http://www.w3.org/2000/svg">
<path d="M208.05 148.406C207.5 148.256 199.067 146.073 190.1 146.073C173.134 146.073 162.9 155.24 162.9 168.89C162.9 180.973 171.45 187.006 181.717 190.24C182.85 190.623 184.534 191.14 185.65 191.506C190.217 192.94 193.867 195.073 193.867 198.773C193.867 202.906 189.65 205.59 180.5 205.59C172.45 205.59 164.734 203.29 163.1 202.873V219.673C164 219.873 173.184 221.673 182.984 221.673C197.084 221.673 213.2 215.523 213.2 197.19C213.2 188.29 207.75 180.106 195.8 176.306L190.717 174.69C187.684 173.74 182.267 172.19 182.267 167.74C182.267 164.223 186.284 161.756 193.667 161.756C200.034 161.756 207.784 163.89 208.067 163.99V148.406H208.05ZM363.684 183.89C363.684 194.506 355.551 203.106 344.634 203.106C333.701 203.106 325.601 194.523 325.601 183.89C325.601 173.29 333.717 164.706 344.634 164.706C355.551 164.69 363.684 173.29 363.684 183.89ZM344.634 146.106C322.184 146.106 306.084 163.04 306.084 183.873C306.084 204.756 322.184 221.673 344.634 221.673C367.084 221.673 383.201 204.756 383.201 183.873C383.201 163.04 367.084 146.106 344.634 146.106ZM138.2 220.39H119.784V147.406H138.2" fill="black"/>
<path d="M94.4668 148.723C92.7335 148.206 86.3334 146.106 77.6668 146.106C55.2501 146.106 38.8 162.09 38.8 183.873C38.8 207.39 56.9667 221.673 77.6668 221.673C85.8834 221.673 92.1668 219.723 94.4668 219.073V199.49C93.6835 199.923 87.6501 203.356 79.0001 203.356C66.7334 203.356 58.8167 194.723 58.8167 183.873C58.8167 172.69 67.0667 164.406 79.0001 164.406C87.8001 164.406 93.7335 167.923 94.4668 168.306" fill="black"/>
<path d="M286.701 148.723C284.967 148.206 278.567 146.106 269.9 146.106C247.484 146.106 231.034 162.09 231.034 183.873C231.034 207.39 249.2 221.673 269.9 221.673C278.117 221.673 284.401 219.723 286.701 219.073V199.49C285.917 199.923 279.884 203.356 271.234 203.356C258.967 203.356 251.05 194.723 251.05 183.873C251.05 172.69 259.3 164.406 271.234 164.406C280.034 164.406 285.967 167.923 286.701 168.306" fill="black"/>
<path d="M119.734 9.42265C119.734 4.38931 115.617 0.305969 110.583 0.305969C105.55 0.305969 101.433 4.38931 101.433 9.42265V106.34C101.433 111.406 105.55 115.473 110.583 115.473C115.617 115.473 119.734 111.39 119.734 106.34V9.42265ZM69.5001 43.8227C69.5001 38.7894 65.4001 34.706 60.3501 34.706C55.3001 34.706 51.2 38.7894 51.2 43.8227V88.1228C51.2 93.1728 55.3001 97.2562 60.3501 97.2562C65.4001 97.2562 69.5001 93.1728 69.5001 88.1228V43.8227ZM19.2833 68.9728C19.2833 63.9394 15.1833 59.8728 10.1333 59.8728C5.09995 59.8728 0.983276 63.9561 0.983276 68.9728V88.1395C0.983276 93.1895 5.09995 97.2728 10.1333 97.2728C15.1666 97.2728 19.2833 93.1895 19.2833 88.1395" fill="black"/>
<path d="M101.45 9.42265C101.45 4.38931 105.567 0.305969 110.6 0.305969C115.634 0.305969 119.75 4.38931 119.75 9.42265V106.34C119.75 111.406 115.634 115.473 110.6 115.473C105.567 115.473 101.45 111.39 101.45 106.34V9.42265ZM151.667 43.8227C151.667 38.7894 155.767 34.706 160.817 34.706C165.85 34.706 169.967 38.7894 169.967 43.8227V88.1228C169.967 93.1728 165.867 97.2562 160.817 97.2562C155.784 97.2562 151.667 93.1728 151.667 88.1228V43.8227ZM201.884 68.9728C201.884 63.9394 205.984 59.8728 211.034 59.8728C216.067 59.8728 220.184 63.9561 220.184 68.9728V88.1395C220.184 93.1895 216.067 97.2728 211.034 97.2728C206 97.2728 201.884 93.1895 201.884 88.1395" fill="black"/>
<path d="M302.267 9.42265C302.267 4.38931 306.384 0.305969 311.417 0.305969C316.451 0.305969 320.567 4.38931 320.567 9.42265V106.34C320.567 111.406 316.451 115.473 311.417 115.473C306.384 115.473 302.267 111.39 302.267 106.34V9.42265ZM352.501 43.8227C352.501 38.7894 356.601 34.706 361.651 34.706C366.701 34.706 370.801 38.7894 370.801 43.8227V88.1228C370.801 93.1728 366.701 97.2562 361.651 97.2562C356.601 97.2562 352.501 93.1728 352.501 88.1228V43.8227ZM402.717 68.9728C402.717 63.9394 406.817 59.8728 411.867 59.8728C416.901 59.8728 421.017 63.9561 421.017 68.9728V88.1395C421.017 93.1895 416.901 97.2728 411.867 97.2728C406.834 97.2728 402.717 93.1895 402.717 88.1395" fill="black"/>
<path d="M320.551 9.42265C320.551 4.38931 316.434 0.305969 311.401 0.305969C306.367 0.305969 302.251 4.38931 302.251 9.42265V106.34C302.251 111.406 306.367 115.473 311.401 115.473C316.434 115.473 320.551 111.39 320.551 106.34V9.42265ZM270.334 43.8227C270.334 38.7894 266.234 34.706 261.184 34.706C256.15 34.706 252.034 38.7894 252.034 43.8227V88.1228C252.034 93.1728 256.134 97.2562 261.184 97.2562C266.217 97.2562 270.334 93.1728 270.334 88.1228V43.8227ZM220.117 68.9728C220.117 63.9394 216.017 59.8728 210.967 59.8728C205.934 59.8728 201.817 63.9561 201.817 68.9728V88.1395C201.817 93.1895 205.934 97.2728 210.967 97.2728C216 97.2728 220.117 93.1895 220.117 88.1395" fill="black"/>
</svg>
