<?xml version="1.0" encoding="utf-8"?>
<!-- Generator: Adobe Illustrator 21.0.2, SVG Export Plug-In . SVG Version: 6.00 Build 0)  -->
<svg version="1.1" id="Layer_1" xmlns="http://www.w3.org/2000/svg" xmlns:xlink="http://www.w3.org/1999/xlink" x="0px" y="0px"
	 viewBox="0 0 291 37" style="enable-background:new 0 0 291 37;" xml:space="preserve">
<style type="text/css">
	.st0{stroke:#231F20;stroke-width:0.15;stroke-miterlimit:10;}
</style>
<path class="st0" d="M229.7,14.7c-5.7,0-10.2,4.5-10.2,10.1c0,5.7,4.5,10.1,10.2,10.1c5.7,0,10.2-4.5,10.2-10.1
	S235.4,14.7,229.7,14.7z M229.7,34.5c-5.3,0-9.5-4.2-9.5-9.6c0-5.4,4.2-9.6,9.5-9.6c5.3,0,9.5,4.2,9.5,9.6
	C239.2,30.3,235,34.5,229.7,34.5z"/>
<polygon class="st0" points="179.3,15.9 178.7,15.2 178.7,35 189.1,35 189.1,34.5 179.3,34.5 "/>
<polygon class="st0" points="200.2,15.3 209.6,15.3 209,14.8 199.5,14.8 199.5,35 209.6,35 209,34.5 200.2,34.5 200.2,25.2 
	209.3,25.2 209.3,24.6 200.2,24.6 "/>
<polygon class="st0" points="249.4,14.7 249.4,33.9 250,34.6 250,16.4 264.3,35 264.4,35 264.3,15.8 263.7,15.2 263.7,33.1 
	249.5,14.7 "/>
<polygon class="st0" points="282,2 279.1,9 279.8,9 282.4,2.5 "/>
<polygon class="st0" points="276.2,34.4 276.2,25.1 285.3,25.1 285.3,24.6 276.2,24.6 276.2,15.3 285.6,15.3 285,14.7 275.5,14.7 
	275.5,35 285.6,35 285,34.4 "/>
<path class="st0" d="M101.4,23.5c-3-1.2-4.2-2.6-4.2-4.7c0-2,1.5-3.4,3.6-3.4c1.3,0,2.2,0.4,3.1,1.4l0.4-0.3c-0.8-1-2-1.6-3.5-1.6
	c-2.5,0-4.3,1.7-4.3,4c0,2.4,1.3,4,4.4,5.2c3.4,1.4,4.8,3.1,4.8,5.8c0,2.7-2.1,4.7-5,4.7c-2,0-3.8-1.1-4.9-2.9L95.3,32
	c1.1,1.9,3.1,3.1,5.5,3.1c3.3,0,5.6-2.2,5.6-5.3C106.4,26.8,104.8,24.9,101.4,23.5z"/>
<path class="st0" d="M122.7,23.5c-3-1.2-4.2-2.6-4.2-4.7c0-2,1.5-3.4,3.6-3.4c1.3,0,2.2,0.4,3.1,1.4l0.4-0.3c-0.8-1-2-1.6-3.5-1.6
	c-2.5,0-4.3,1.7-4.3,4c0,2.4,1.4,4,4.4,5.2c3.4,1.4,4.8,3.1,4.8,5.8c0,2.7-2.1,4.7-5,4.7c-2,0-3.8-1.1-4.9-2.9l-0.5,0.4
	c1.1,1.9,3.1,3.1,5.5,3.1c3.3,0,5.6-2.2,5.6-5.3C127.7,26.8,126.1,24.9,122.7,23.5z"/>
<path class="st0" d="M8.3,34.4c0.1-0.1,0.2-0.2,0.3-0.2l0.1-0.1c0.2-0.2,0.5-0.5,0.7-0.8c0.7-1,1-2.4,1-4.1l0-13.3l-0.7-0.7l0,14.1
	c0,3.3-1.4,5.2-3.9,5.2c-0.9,0-1.8-0.4-2.5-1c0,0-0.2-0.2-0.4-0.4l-0.4,0.4C2.7,33.7,2.9,33.9,3,34C3,34,3.1,34,3.1,34.1
	c0,0,0.4,0.4,1.1,0.7c0.1,0,0.2,0.1,0.3,0.1l0.2,0.1C4.9,35,5,35,5.1,35c0.1,0,0.2,0,0.3,0l0.1,0c0.2,0,0.3,0,0.5,0l0,0.3l0-0.3
	l0.1,0c0.2,0,0.4,0,0.5,0l0.2,0.3L6.8,35C7.3,34.9,7.8,34.7,8.3,34.4z"/>
<polygon class="st0" points="47.3,14.8 47.3,34 47.9,34.7 47.9,16.5 62.2,35.1 62.3,35.1 62.2,15.9 61.6,15.2 61.6,33.2 47.3,14.8 
	"/>
<polygon class="st0" points="75.2,15.4 84.6,15.3 84,14.8 74.5,14.8 74.5,35.1 84.6,35.1 84,34.5 75.2,34.5 75.2,25.2 84.3,25.2 
	84.3,24.7 75.2,24.7 "/>
<path class="st0" d="M145,14.8l-7.8,19.5l0.5,0.5L140,29l10.3,0l2.4,5.8l0.5-0.5l-7.9-19.5L145,14.8z M140.2,28.5l4.9-12.2l4.9,12.2
	L140.2,28.5z"/>
<path class="st0" d="M28.7,14.8l-7.8,19.5l0.5,0.5l2.3-5.7l10.3,0l2.4,5.8l0.5-0.5l-7.9-19.5L28.7,14.8z M23.8,28.6l4.9-12.2
	l4.9,12.2L23.8,28.6z"/>
</svg>
