<?xml version="1.0" encoding="UTF-8" standalone="no"?>
<!DOCTYPE svg PUBLIC "-//W3C//DTD SVG 1.1//EN" "http://www.w3.org/Graphics/SVG/1.1/DTD/svg11.dtd">
<svg xmlns="http://www.w3.org/2000/svg" version="1.1" viewBox="0.00 0.00 676.00 164.00">
<path fill="#000000" d="
  M 503.06 76.42
  L 533.64 49.43
  A 1.28 1.26 -65.0 0 1 534.47 49.12
  L 546.80 49.12
  A 1.54 1.54 0.0 0 1 547.81 51.83
  L 522.11 73.86
  Q 521.73 74.19 522.04 74.59
  Q 534.65 90.51 547.20 106.45
  C 548.10 107.60 547.98 108.45 547.94 109.81
  Q 547.92 110.25 547.49 110.25
  L 536.74 110.25
  A 1.07 1.07 0.0 0 1 535.90 109.84
  L 513.89 81.54
  Q 513.59 81.15 513.23 81.47
  L 503.00 90.23
  Q 502.54 90.62 502.54 91.23
  L 502.54 109.73
  Q 502.54 110.25 502.02 110.25
  L 491.93 110.25
  Q 491.37 110.25 491.37 109.68
  L 491.38 25.92
  Q 491.38 25.47 491.83 25.46
  L 501.41 25.27
  A 1.14 1.14 0.0 0 1 502.57 26.41
  L 502.55 76.18
  Q 502.55 76.87 503.06 76.42
  Z"
/>
<path fill="#000000" d="
  M 102.88 59.19
  L 102.88 98.74
  A 1.61 1.60 -0.0 0 0 104.49 100.34
  L 119.99 100.35
  A 0.64 0.64 0.0 0 1 120.63 100.99
  L 120.63 109.53
  Q 120.64 110.14 120.02 110.17
  C 113.34 110.51 103.97 110.89 98.66 107.44
  C 92.84 103.66 92.24 98.13 92.22 90.97
  Q 92.18 75.10 92.21 59.22
  Q 92.21 58.75 91.73 58.75
  L 78.57 58.75
  Q 78.13 58.76 78.13 58.32
  L 78.11 49.50
  Q 78.11 49.11 78.50 49.11
  L 91.66 49.13
  Q 92.20 49.13 92.20 48.59
  L 92.19 33.01
  Q 92.19 32.46 92.74 32.46
  L 102.29 32.46
  Q 102.88 32.46 102.88 33.04
  L 102.88 48.50
  Q 102.88 49.12 103.50 49.12
  L 120.13 49.12
  Q 120.63 49.12 120.63 49.63
  L 120.63 58.18
  Q 120.63 58.75 120.07 58.75
  L 103.31 58.75
  Q 102.88 58.75 102.88 59.19
  Z"
/>
<path fill="#000000" d="
  M 332.75 59.25
  L 332.75 99.05
  A 1.30 1.29 0.0 0 0 334.05 100.34
  L 349.80 100.35
  A 0.46 0.46 0.0 0 1 350.26 100.81
  L 350.27 109.52
  Q 350.27 110.07 349.73 110.10
  C 334.82 111.00 321.72 110.48 321.75 91.88
  Q 321.77 75.57 321.75 59.25
  Q 321.74 58.75 321.24 58.75
  L 308.25 58.75
  Q 307.75 58.75 307.75 58.25
  L 307.75 49.55
  Q 307.75 49.11 308.20 49.11
  L 321.19 49.13
  Q 321.75 49.13 321.75 48.56
  L 321.75 32.98
  Q 321.75 32.46 322.27 32.46
  L 332.23 32.46
  Q 332.75 32.46 332.75 32.98
  L 332.75 48.56
  Q 332.75 49.12 333.31 49.12
  L 349.82 49.11
  Q 350.27 49.11 350.27 49.57
  L 350.26 58.25
  Q 350.26 58.75 349.75 58.75
  L 333.25 58.75
  Q 332.75 58.75 332.75 59.25
  Z"
/>
<path fill="#000000" d="
  M 31.84 68.42
  Q 33.32 71.09 37.79 72.06
  Q 47.04 74.06 56.26 76.11
  C 64.81 78.01 72.08 82.79 72.38 92.25
  C 73.00 111.71 50.74 113.79 37.01 110.75
  Q 20.84 107.17 18.44 91.08
  A 0.61 0.61 0.0 0 1 19.04 90.38
  L 29.00 90.37
  Q 29.63 90.37 29.73 90.99
  C 31.37 101.97 43.46 103.29 52.28 102.23
  C 56.74 101.70 61.49 98.63 61.43 93.68
  C 61.37 88.65 57.33 87.10 52.59 86.05
  Q 44.81 84.33 37.00 82.73
  C 26.90 80.67 19.51 75.41 20.11 64.12
  Q 20.68 53.54 31.27 49.45
  Q 42.16 45.25 54.95 48.59
  Q 70.20 52.57 71.92 68.24
  Q 71.97 68.74 71.47 68.74
  L 61.48 68.74
  Q 60.92 68.74 60.83 68.19
  Q 58.97 57.71 47.22 56.87
  C 41.82 56.49 35.03 56.70 31.89 61.53
  Q 29.80 64.76 31.84 68.42
  Z"
/>
<path fill="#000000" d="
  M 190.13 70.40
  C 191.06 72.36 190.89 75.25 191.05 77.37
  C 192.19 92.45 185.34 104.79 171.58 109.87
  C 159.02 114.49 142.08 111.54 133.81 100.37
  C 124.50 87.80 125.25 65.83 137.24 55.05
  C 146.25 46.94 160.25 45.33 171.49 49.18
  Q 186.12 54.19 189.81 69.57
  Q 189.88 69.86 190.13 70.40
  Z
  M 142.88 64.88
  Q 137.16 73.40 139.08 84.21
  Q 142.00 100.65 157.41 102.04
  C 189.86 104.98 187.38 48.93 152.88 57.97
  Q 146.36 59.68 142.88 64.88
  Z"
/>
<path fill="#000000" d="
  M 254.60 83.20
  Q 254.49 86.46 255.74 90.01
  C 259.93 101.93 272.23 104.65 283.26 100.99
  Q 289.90 98.79 291.89 90.82
  A 0.62 0.61 6.5 0 1 292.49 90.35
  L 303.00 90.39
  A 0.53 0.53 0.0 0 1 303.52 91.04
  C 300.48 103.65 291.20 110.24 278.54 111.74
  C 267.83 113.01 255.36 109.66 248.99 100.41
  C 242.56 91.06 241.75 77.29 245.27 66.51
  Q 249.34 54.01 261.97 49.21
  C 272.86 45.07 287.87 46.98 296.05 55.82
  C 302.62 62.92 303.71 72.65 303.19 82.31
  Q 303.16 82.75 302.72 82.75
  L 255.06 82.75
  Q 254.61 82.75 254.60 83.20
  Z
  M 255.16 73.47
  L 292.30 73.27
  A 0.16 0.16 0.0 0 0 292.46 73.11
  L 292.46 73.02
  A 17.54 16.35 -0.3 0 0 274.84 56.76
  L 272.46 56.78
  A 17.54 16.35 -0.3 0 0 255.00 73.22
  L 255.00 73.31
  A 0.16 0.16 0.0 0 0 255.16 73.47
  Z"
/>
<path fill="#000000" d="
  M 402.91 72.71
  C 402.54 67.77 403.01 63.83 399.07 60.19
  Q 396.83 58.13 392.50 57.14
  C 384.62 55.34 373.35 57.71 372.85 67.69
  Q 372.82 68.23 372.28 68.23
  L 362.02 68.21
  Q 361.50 68.21 361.54 67.69
  Q 362.68 52.76 376.29 48.84
  C 388.67 45.27 406.47 46.65 411.74 60.25
  Q 413.29 64.27 413.38 70.75
  Q 413.65 90.16 413.65 109.58
  Q 413.66 110.25 412.99 110.25
  L 403.56 110.25
  Q 403.11 110.25 403.11 109.81
  L 403.12 103.75
  A 0.70 0.69 64.4 0 0 401.88 103.31
  Q 396.41 110.27 387.49 111.59
  C 376.58 113.21 363.26 109.91 359.32 98.28
  Q 357.20 92.02 359.36 86.03
  C 362.09 78.46 369.59 75.01 377.27 74.55
  Q 389.86 73.80 402.48 73.20
  Q 402.95 73.17 402.91 72.71
  Z
  M 369.55 91.87
  C 369.03 98.33 375.01 101.78 380.73 102.20
  Q 401.75 103.77 402.94 83.27
  Q 402.97 82.82 402.51 82.82
  Q 383.49 82.82 376.66 84.11
  Q 370.08 85.36 369.55 91.87
  Z"
/>
<path fill="#000000" d="
  M 440.70 70.58
  C 441.55 71.22 442.79 71.45 443.86 72.01
  Q 444.55 72.37 445.16 72.47
  Q 458.29 74.59 467.49 77.43
  Q 472.91 79.10 476.04 83.39
  Q 478.88 87.28 479.04 92.76
  C 479.64 113.04 453.61 114.26 440.24 109.78
  Q 426.91 105.31 425.30 90.92
  Q 425.24 90.38 425.79 90.38
  L 435.71 90.37
  Q 436.20 90.37 436.31 90.85
  Q 438.63 101.13 449.40 102.25
  Q 455.57 102.89 460.62 101.89
  C 467.43 100.53 471.59 92.58 464.70 87.81
  Q 463.55 87.01 459.20 86.06
  Q 450.74 84.20 442.26 82.47
  Q 441.15 82.25 437.26 80.76
  C 430.88 78.32 427.35 73.37 426.88 66.47
  C 425.60 47.34 449.55 44.89 463.28 48.90
  Q 477.16 52.95 478.55 68.36
  Q 478.58 68.74 478.21 68.74
  L 467.97 68.74
  Q 467.34 68.74 467.28 68.10
  C 466.24 55.94 451.45 54.96 442.99 58.00
  C 437.52 59.96 435.75 66.82 440.70 70.58
  Z"
/>
<path fill="#000000" d="
  M 564.78 83.24
  C 565.41 96.52 574.25 103.23 586.82 102.40
  C 594.13 101.91 600.16 98.54 602.14 91.01
  Q 602.31 90.36 602.98 90.36
  L 613.24 90.39
  A 0.55 0.55 0.0 0 1 613.77 91.07
  C 610.63 103.83 601.14 110.43 588.31 111.79
  Q 579.39 112.73 571.24 109.71
  C 547.16 100.77 547.29 57.44 572.22 49.20
  Q 585.58 44.79 596.74 49.33
  C 610.51 54.92 614.74 68.42 613.47 82.30
  Q 613.43 82.75 612.98 82.75
  L 565.25 82.75
  Q 564.76 82.75 564.78 83.24
  Z
  M 565.36 73.51
  L 602.52 73.25
  A 0.16 0.16 0.0 0 0 602.68 73.09
  L 602.68 72.98
  A 17.65 16.35 -0.4 0 0 584.91 56.75
  L 582.73 56.77
  A 17.65 16.35 -0.4 0 0 565.20 73.24
  L 565.20 73.35
  A 0.16 0.16 0.0 0 0 565.36 73.51
  Z"
/>
<path fill="#000000" d="
  M 214.74 57.49
  A 0.67 0.67 0.0 0 0 216.03 57.75
  C 219.84 48.64 228.86 48.23 238.36 48.90
  Q 238.74 48.92 238.74 49.30
  L 238.73 58.98
  Q 238.73 59.57 238.14 59.56
  C 229.68 59.41 219.36 58.19 215.74 68.16
  Q 214.79 70.78 214.77 76.97
  Q 214.72 93.34 214.75 109.73
  Q 214.75 110.25 214.23 110.25
  L 204.25 110.25
  Q 203.74 110.25 203.74 109.75
  L 203.74 49.56
  Q 203.74 49.11 204.19 49.11
  L 214.31 49.12
  Q 214.74 49.12 214.74 49.56
  L 214.74 57.49
  Z"
/>
<path fill="#000000" d="
  M 638.05 57.86
  C 639.39 56.61 640.12 54.61 641.16 53.46
  C 645.79 48.36 654.07 48.38 660.84 48.86
  Q 661.25 48.89 661.25 49.30
  L 661.25 59.00
  Q 661.25 59.55 660.69 59.55
  C 655.43 59.50 648.75 58.95 644.33 61.13
  Q 637.40 64.54 637.33 73.13
  Q 637.19 91.42 637.26 109.72
  Q 637.26 110.25 636.73 110.25
  L 626.75 110.25
  Q 626.25 110.25 626.25 109.75
  L 626.24 49.56
  Q 626.24 49.12 626.69 49.12
  L 636.80 49.11
  Q 637.24 49.11 637.24 49.55
  L 637.25 57.52
  A 0.48 0.47 -21.9 0 0 638.05 57.86
  Z"
/>
</svg>
