<svg id="Layer_1" data-name="Layer 1" xmlns="http://www.w3.org/2000/svg" viewBox="0 0 369.25 48.73"><title>StudioNeue_Logo</title><path d="M0,41.24l6-7.16c4.14,3.42,8.47,5.58,13.73,5.58,4.14,0,6.63-1.64,6.63-4.33V35.2c0-2.56-1.58-3.87-9.26-5.85C7.82,27,1.84,24.43,1.84,15.3v-.13c0-8.34,6.7-13.86,16.09-13.86A26.61,26.61,0,0,1,35,7.16l-5.25,7.62c-4.07-2.82-8.08-4.53-12-4.53s-5.91,1.77-5.91,4v.13c0,3,2,4,9.92,6,9.33,2.43,14.58,5.78,14.58,13.79v.13c0,9.13-7,14.25-16.88,14.25A29.26,29.26,0,0,1,0,41.24Z"/><path d="M41.71,38V21.28H37.5V12.74h4.2v-9h10v9H60v8.54H51.69v15c0,2.3,1,3.42,3.22,3.42a10.15,10.15,0,0,0,4.92-1.25v8a14.72,14.72,0,0,1-7.88,2C45.84,48.53,41.71,46.1,41.71,38Z"/><path d="M64.63,35.53V12.74h10V32.38c0,4.73,2.23,7.16,6,7.16s6.24-2.43,6.24-7.16V12.74h10v35.2h-10V43c-2.3,3-5.25,5.65-10.31,5.65C69,48.6,64.63,43.61,64.63,35.53Z"/><path d="M100.49,30.41v-.13c0-11.76,7.68-18.19,16-18.19a13.52,13.52,0,0,1,11,5.25V0h10V47.94h-10V42.88a12.93,12.93,0,0,1-11,5.71C108.31,48.6,100.49,42.16,100.49,30.41Zm27.12,0v-.13c0-5.84-3.87-9.72-8.54-9.72s-8.6,3.81-8.6,9.72v.13c0,5.85,3.94,9.72,8.6,9.72S127.61,36.25,127.61,30.41Z"/><path d="M142.85,0h10.51V8.87H142.85Zm.26,12.74h10v35.2h-10Z"/><path d="M157,30.54v-.13c0-10.11,8.14-18.32,19.11-18.32s19,8.08,19,18.19v.13c0,10.11-8.14,18.32-19.11,18.32S157,40.65,157,30.54Zm28.24,0v-.13c0-5.19-3.74-9.72-9.26-9.72-5.71,0-9.13,4.4-9.13,9.59v.13c0,5.19,3.74,9.72,9.26,9.72C181.87,40.13,185.28,35.73,185.28,30.54Z"/><path d="M215.63,2H225l21.54,28.31V2h10v46h-8.6L225.61,18.72V47.94h-10Z"/><path d="M261,30.54v-.13c0-10,7.16-18.32,17.4-18.32,11.76,0,17.14,9.13,17.14,19.11,0,.79-.07,1.71-.13,2.63h-24.5c1,4.53,4.14,6.9,8.6,6.9,3.35,0,5.78-1.05,8.54-3.61l5.71,5.06c-3.28,4.07-8,6.57-14.38,6.57C268.83,48.73,261,41.31,261,30.54Zm24.83-3c-.59-4.47-3.22-7.49-7.42-7.49s-6.83,3-7.62,7.49Z"/><path d="M299,35.53V12.74h10V32.38c0,4.73,2.23,7.16,6,7.16s6.24-2.43,6.24-7.16V12.74h10v35.2h-10V43c-2.3,3-5.25,5.65-10.31,5.65C303.38,48.6,299,43.61,299,35.53Z"/><path d="M334.71,30.54v-.13c0-10,7.16-18.32,17.4-18.32,11.75,0,17.14,9.13,17.14,19.11,0,.79-.07,1.71-.13,2.63h-24.5c1,4.53,4.14,6.9,8.6,6.9,3.35,0,5.78-1.05,8.54-3.61l5.71,5.06c-3.28,4.07-8,6.57-14.38,6.57C342.52,48.73,334.71,41.31,334.71,30.54Zm24.82-3c-.59-4.47-3.22-7.49-7.42-7.49s-6.83,3-7.62,7.49Z"/></svg>