<?xml version="1.0" encoding="UTF-8"?>
<svg width="231px" height="74px" viewBox="0 0 231 74" version="1.1" xmlns="http://www.w3.org/2000/svg" xmlns:xlink="http://www.w3.org/1999/xlink">
    <!-- Generator: Sketch 41.2 (35397) - http://www.bohemiancoding.com/sketch -->
    <title>Toptal</title>
    <desc>Created with Sketch.</desc>
    <defs></defs>
    <g id="Page-1" stroke="none" stroke-width="1" fill="none" fill-rule="evenodd">
        <g id="Artboard-Copy" transform="translate(-232.000000, -1960.000000)" fill="#121212">
            <g id="Group-2" transform="translate(-4.000000, 1807.000000)">
                <g id="full_logo" transform="translate(236.000000, 153.000000)">
                    <g id="logo">
                        <g id="Toptal">
                            <path d="M50.5279384,30.8102804 L19.723078,0.155607477 L13.4682841,6.37990654 L25.0396529,17.8948598 L0.0204770041,42.7920561 L30.8253373,73.446729 L37.0801313,67.2224299 L25.5087625,55.7074766 L50.5279384,30.8102804 Z M13.9373936,43.7257009 L32.5454057,25.2084112 L36.2982821,28.9429907 L17.69027,47.6158879 L13.9373936,43.7257009 Z" id="Shape"></path>
                            <g id="Group" transform="translate(58.033691, 0.000000)">
                                <path d="M13.7605467,9.02523364 L13.7605467,18.3616822 L24.0809568,18.3616822 L24.0809568,23.8079439 L13.7605467,23.8079439 L13.7605467,44.9705607 C13.7605467,49.7943925 15.1678754,52.5953271 19.0771216,52.5953271 C20.9535598,52.5953271 22.2045186,52.4397196 23.2991076,52.1285047 L23.6118473,57.5747664 C22.2045186,58.0415888 20.0153407,58.5084112 17.2006834,58.5084112 C13.9169166,58.5084112 11.1022593,57.4191589 9.53856081,55.5518692 C7.66212262,53.3733645 6.72390352,49.95 6.72390352,45.2817757 L6.72390352,23.8079439 L0.625479398,23.8079439 L0.625479398,18.3616822 L6.72390352,18.3616822 L6.72390352,11.0481308 L13.7605467,9.02523364 Z" id="Shape"></path>
                                <path d="M62.5479398,37.8126168 C62.5479398,52.2841121 52.3838995,58.6640187 42.8453387,58.6640187 C32.212189,58.6640187 23.924587,50.8836449 23.924587,38.4350467 C23.924587,25.3640187 32.6812985,17.7392523 43.4708181,17.7392523 C54.8858171,17.5836449 62.5479398,25.8308411 62.5479398,37.8126168 Z M31.4303397,38.1238318 C31.4303397,46.682243 36.2778051,53.217757 43.3144483,53.217757 C50.1947217,53.217757 55.3549267,46.8378505 55.3549267,37.9682243 C55.3549267,31.2771028 52.0711598,23.0299065 43.4708181,23.0299065 C35.0268463,23.0299065 31.4303397,30.8102804 31.4303397,38.1238318 Z" id="Shape"></path>
                                <path d="M66.1444463,31.2771028 C66.1444463,26.2976636 65.9880764,22.2518692 65.8317066,18.5172897 L72.2428704,18.5172897 L72.71198,25.2084112 L72.8683498,25.2084112 C75.6830071,20.3845794 80.3741026,17.7392523 86.9416363,17.7392523 C96.4801971,17.7392523 103.67321,25.8308411 103.67321,37.6570093 C103.67321,51.8172897 94.9164986,58.6640187 85.6906775,58.6640187 C80.5304724,58.6640187 75.839377,56.3299065 73.4938292,52.4397196 L73.3374594,52.4397196 L73.3374594,73.7579439 L66.3008161,73.7579439 L66.3008161,31.2771028 L66.1444463,31.2771028 Z M73.1810895,41.7028037 C73.1810895,42.7920561 73.3374594,43.7257009 73.4938292,44.6593458 C74.744788,49.638785 79.1231438,53.0621495 84.2833488,53.0621495 C91.7891016,53.0621495 96.3238272,46.8378505 96.3238272,37.9682243 C96.3238272,30.1878505 92.1018413,23.496729 84.5960885,23.496729 C79.7486232,23.496729 75.0575277,26.9200935 73.8065689,32.2107477 C73.4938292,33.1443925 73.3374594,34.2336449 73.3374594,35.0116822 L73.3374594,41.7028037 L73.1810895,41.7028037 Z" id="Shape"></path>
                                <path d="M117.277387,9.02523364 L117.277387,18.3616822 L127.597797,18.3616822 L127.597797,23.8079439 L117.277387,23.8079439 L117.277387,44.9705607 C117.277387,49.7943925 118.684716,52.5953271 122.593962,52.5953271 C124.4704,52.5953271 125.721359,52.4397196 126.815948,52.1285047 L127.128688,57.5747664 C125.721359,58.0415888 123.532181,58.5084112 120.717524,58.5084112 C117.433757,58.5084112 114.6191,57.4191589 113.055401,55.5518692 C111.022593,53.3733645 110.240744,49.95 110.240744,45.2817757 L110.240744,23.8079439 L104.14232,23.8079439 L104.14232,18.3616822 L110.240744,18.3616822 L110.240744,11.0481308 L117.277387,9.02523364 Z" id="Shape"></path>
                                <path d="M160.122726,48.2383178 C160.122726,51.6616822 160.279096,54.9294393 160.748205,57.5747664 L154.337041,57.5747664 L153.711562,52.5953271 L153.398822,52.5953271 C151.209644,55.7074766 146.987658,58.5084112 141.358344,58.5084112 C133.383482,58.5084112 129.317865,52.9065421 129.317865,47.3046729 C129.317865,37.8126168 137.761837,32.6775701 153.086083,32.6775701 L153.086083,31.8995327 C153.086083,28.7873832 152.147863,22.8742991 144.173001,22.8742991 C140.420125,22.8742991 136.667248,23.9635514 133.852591,25.8308411 L132.288893,21.0070093 C135.572659,18.9841121 140.420125,17.5836449 145.26759,17.5836449 C157.308068,17.5836449 160.279096,25.8308411 160.279096,33.611215 L160.279096,48.2383178 L160.122726,48.2383178 Z M153.242452,37.6570093 C145.42396,37.5014019 136.510879,38.9018692 136.510879,46.5266355 C136.510879,51.1948598 139.638276,53.3733645 143.234782,53.3733645 C148.394987,53.3733645 151.835124,50.1056075 152.929713,46.8378505 C153.242452,46.0598131 153.242452,45.2817757 153.242452,44.5037383 L153.242452,37.6570093 Z" id="Shape"></path>
                                <polygon id="Shape" points="165.439301 0.155607477 172.632314 0.155607477 172.632314 57.7303738 165.439301 57.7303738"></polygon>
                            </g>
                        </g>
                    </g>
                </g>
            </g>
        </g>
    </g>
</svg>