<?xml version="1.0" encoding="UTF-8" standalone="no"?>
<!DOCTYPE svg PUBLIC "-//W3C//DTD SVG 1.1//EN" "http://www.w3.org/Graphics/SVG/1.1/DTD/svg11.dtd">
<svg xmlns="http://www.w3.org/2000/svg" version="1.1" viewBox="0.00 0.00 501.00 71.00">
<path fill="#ffffff" d="
  M 203.37 58.90
  Q 194.17 66.75 183.24 62.02
  C 165.71 54.44 167.53 24.00 187.74 20.88
  Q 196.60 19.51 202.85 25.62
  A 0.25 0.25 0.0 0 0 203.28 25.44
  L 203.21 6.76
  Q 203.21 6.17 203.80 6.17
  L 213.52 6.21
  Q 214.09 6.21 214.09 6.77
  L 214.07 62.12
  Q 214.07 62.57 213.63 62.57
  L 204.24 62.60
  Q 203.63 62.60 203.69 61.99
  L 203.92 59.19
  Q 203.99 58.37 203.37 58.90
  Z
  M 192.6174 54.2174
  A 12.06 10.71 91.2 0 0 203.5777 42.3843
  A 12.06 10.71 91.2 0 0 193.1226 30.1026
  A 12.06 10.71 91.2 0 0 182.1623 41.9357
  A 12.06 10.71 91.2 0 0 192.6174 54.2174
  Z"
/>
<path fill="#ffffff" d="
  M 22.12 48.48
  L 32.76 8.41
  A 0.86 0.84 -82.4 0 1 33.58 7.77
  L 42.75 7.77
  Q 43.23 7.77 43.35 8.23
  L 53.97 48.21
  A 0.21 0.21 0.0 0 0 54.38 48.20
  L 63.71 8.22
  Q 63.82 7.77 64.28 7.77
  L 75.43 7.77
  Q 75.94 7.77 75.81 8.26
  L 61.32 61.98
  Q 61.16 62.57 60.54 62.57
  L 48.97 62.60
  Q 48.47 62.60 48.33 62.12
  L 38.29 25.41
  A 0.22 0.22 0.0 0 0 37.87 25.41
  L 27.87 61.97
  Q 27.69 62.60 27.05 62.59
  L 15.54 62.57
  Q 15.08 62.57 14.96 62.12
  L 0.34 8.25
  Q 0.21 7.77 0.71 7.77
  L 11.97 7.77
  Q 12.42 7.77 12.52 8.21
  L 21.83 48.47
  A 0.15 0.15 0.0 0 0 22.12 48.48
  Z"
/>
<path fill="#ffffff" d="
  M 276.85 27.02
  A 0.33 0.33 0.0 0 0 277.47 27.21
  Q 280.84 21.08 287.94 20.63
  Q 288.55 20.60 288.55 21.21
  L 288.55 30.86
  Q 288.55 31.42 287.99 31.48
  C 277.16 32.63 277.54 40.02 277.45 49.58
  Q 277.39 55.82 277.48 62.09
  Q 277.49 62.59 276.99 62.59
  L 267.04 62.58
  Q 266.50 62.58 266.50 62.04
  L 266.51 22.21
  A 0.53 0.53 0.0 0 1 267.04 21.68
  L 276.79 21.69
  Q 277.40 21.69 277.33 22.30
  L 276.85 27.02
  Z"
/>
<path fill="#ffffff" d="
  M 123.2400 42.2491
  A 22.38 21.62 0.1 0 1 100.8223 63.8300
  A 22.38 21.62 0.1 0 1 78.4800 42.1709
  A 22.38 21.62 0.1 0 1 100.8977 20.5900
  A 22.38 21.62 0.1 0 1 123.2400 42.2491
  Z
  M 101.1641 54.1759
  A 12.00 11.43 88.5 0 0 112.2761 41.8808
  A 12.00 11.43 88.5 0 0 100.5359 30.1841
  A 12.00 11.43 88.5 0 0 89.4239 42.4792
  A 12.00 11.43 88.5 0 0 101.1641 54.1759
  Z"
/>
<path fill="#ffffff" d="
  M 139.62 25.98
  A 0.26 0.26 0.0 0 0 140.08 26.17
  C 143.03 22.33 147.25 20.31 152.22 20.75
  Q 164.34 21.82 165.09 35.05
  Q 165.52 42.64 165.18 62.14
  Q 165.18 62.58 164.74 62.58
  L 154.94 62.59
  Q 154.31 62.59 154.32 61.97
  Q 154.41 50.50 154.33 39.14
  Q 154.30 35.34 153.31 33.58
  C 150.96 29.40 144.02 29.44 141.51 33.27
  Q 140.24 35.21 140.23 39.49
  Q 140.18 50.79 140.22 62.08
  Q 140.22 62.58 139.73 62.58
  L 129.81 62.58
  Q 129.25 62.58 129.25 62.02
  L 129.26 22.22
  Q 129.26 21.69 129.78 21.69
  L 139.55 21.69
  Q 140.16 21.70 140.08 22.30
  L 139.62 25.98
  Z"
/>
<path fill="#ffffff" d="
  M 231.34 45.29
  C 232.79 55.76 245.74 56.80 251.75 49.61
  Q 252.07 49.23 252.46 49.52
  L 258.97 54.37
  Q 259.43 54.71 259.09 55.16
  Q 253.10 63.15 243.01 63.65
  C 211.52 65.20 213.70 17.16 243.50 20.79
  C 255.75 22.28 261.22 32.81 260.41 44.27
  Q 260.37 44.85 259.79 44.85
  L 231.77 44.80
  Q 231.27 44.80 231.34 45.29
  Z
  M 231.63 36.79
  Q 231.30 37.77 232.33 37.77
  L 248.87 37.77
  Q 249.60 37.77 249.45 37.06
  C 247.25 26.79 234.85 27.12 231.63 36.79
  Z"
/>
<path fill="#ffffff" d="
  M 304.85 30.58
  A 2.39 2.38 65.2 0 0 303.95 33.03
  C 304.70 36.31 314.51 38.88 316.50 39.74
  C 323.08 42.62 325.61 50.37 322.06 56.61
  C 316.10 67.06 299.19 65.08 292.57 56.49
  Q 292.26 56.08 292.65 55.74
  L 298.34 50.77
  A 0.62 0.62 0.0 0 1 299.20 50.82
  Q 304.33 56.42 311.09 54.41
  C 314.39 53.43 313.66 49.08 310.77 47.96
  Q 306.31 46.22 301.89 44.36
  C 291.47 39.99 290.53 25.77 301.75 21.88
  Q 314.28 17.54 322.64 27.35
  A 0.60 0.59 51.1 0 1 322.55 28.21
  L 316.20 32.94
  Q 315.76 33.27 315.40 32.86
  C 312.80 29.96 308.39 27.93 304.85 30.58
  Z"
/>
<path fill="#ffffff" d="
  M 352.98 60.72
  A 0.59 0.59 0.0 0 0 351.96 60.34
  C 345.47 67.08 331.99 63.34 328.22 55.45
  Q 326.15 51.14 327.57 46.25
  C 330.44 36.29 343.28 34.44 351.55 38.33
  Q 351.96 38.51 352.02 38.07
  C 353.73 26.92 339.48 29.81 334.19 32.71
  Q 333.69 32.98 333.40 32.49
  L 329.67 26.03
  A 0.57 0.56 -31.1 0 1 329.86 25.27
  C 338.44 20.02 355.87 17.16 361.30 28.25
  Q 362.91 31.54 362.97 39.98
  Q 363.05 51.02 363.00 62.04
  Q 363.00 62.56 362.48 62.56
  L 353.71 62.60
  Q 353.07 62.60 353.04 61.96
  L 352.98 60.72
  Z
  M 352.39 49.59
  A 7.21 5.73 0.0 0 0 345.18 43.86
  A 7.21 5.73 0.0 0 0 337.97 49.59
  A 7.21 5.73 0.0 0 0 345.18 55.32
  A 7.21 5.73 0.0 0 0 352.39 49.59
  Z"
/>
<path fill="#ffffff" d="
  M 447.64 25.23
  L 444.78 33.55
  A 0.48 0.47 30.4 0 1 444.01 33.75
  C 438.37 28.62 429.38 28.85 425.21 35.74
  C 419.21 45.65 428.53 57.06 439.69 53.27
  C 441.27 52.73 442.71 51.79 444.21 50.76
  Q 444.68 50.44 444.86 50.98
  L 447.47 58.82
  A 0.81 0.81 0.0 0 1 447.13 59.76
  Q 436.37 66.39 425.67 61.94
  C 407.58 54.41 408.75 29.12 426.21 22.29
  C 433.57 19.42 441.25 20.36 447.56 24.97
  A 0.22 0.22 0.0 0 1 447.64 25.23
  Z"
/>
<path fill="#ffffff" d="
  M 462.50 45.36
  C 463.91 55.73 476.89 56.78 482.87 49.66
  Q 483.22 49.24 483.66 49.57
  L 490.14 54.40
  A 0.61 0.61 0.0 0 1 490.25 55.28
  Q 484.27 62.59 475.64 63.59
  C 456.20 65.82 444.99 45.83 454.89 29.75
  Q 461.08 19.71 474.14 20.89
  C 487.10 22.07 492.19 32.70 491.62 44.45
  A 0.43 0.43 0.0 0 1 491.19 44.86
  L 462.98 44.80
  Q 462.42 44.80 462.50 45.36
  Z
  M 463.02 37.76
  L 480.38 37.76
  A 0.12 0.12 0.0 0 0 480.50 37.64
  L 480.50 37.61
  A 8.64 8.05 0.0 0 0 471.86 29.56
  L 471.54 29.56
  A 8.64 8.05 -0.0 0 0 462.90 37.61
  L 462.90 37.64
  A 0.12 0.12 0.0 0 0 463.02 37.76
  Z"
/>
<path fill="#ffffff" d="
  M 395.71 58.35
  C 392.27 62.60 387.34 64.54 381.89 63.32
  Q 371.33 60.94 370.95 48.46
  Q 370.55 35.36 370.75 22.18
  Q 370.76 21.69 371.25 21.69
  L 381.09 21.67
  Q 381.67 21.67 381.67 22.25
  Q 381.59 33.89 381.65 45.44
  Q 381.67 48.75 382.49 50.40
  C 384.71 54.86 391.89 54.92 394.40 51.13
  Q 395.77 49.07 395.77 44.59
  Q 395.78 33.38 395.77 22.18
  A 0.48 0.48 0.0 0 1 396.25 21.70
  L 406.21 21.69
  Q 406.74 21.68 406.74 22.21
  L 406.74 62.05
  Q 406.74 62.60 406.20 62.60
  L 396.51 62.56
  A 0.59 0.58 4.2 0 1 395.93 61.89
  L 396.38 58.64
  Q 396.56 57.29 395.71 58.35
  Z"
/>
</svg>
