<?xml version="1.0" standalone="no"?>
<!DOCTYPE svg PUBLIC "-//W3C//DTD SVG 20010904//EN"
 "http://www.w3.org/TR/2001/REC-SVG-20010904/DTD/svg10.dtd">
<svg version="1.0" xmlns="http://www.w3.org/2000/svg"
 width="648.000000pt" height="648.000000pt" viewBox="0 0 648.000000 648.000000"
 preserveAspectRatio="xMidYMid meet">
<metadata>
Created by potrace 1.14, written by Peter Selinger 2001-2017
</metadata>
<g transform="translate(0.000000,648.000000) scale(0.100000,-0.100000)"
fill="#000000" stroke="none">
<path d="M3118 6475 c-2 -3 -22 -7 -44 -11 -21 -3 -42 -8 -45 -10 -3 -2 -20
-6 -37 -9 -66 -11 -252 -110 -661 -351 -40 -24 -77 -44 -82 -44 -4 0 -14 -6
-21 -12 -7 -7 -26 -20 -43 -28 -16 -8 -32 -18 -35 -21 -3 -3 -30 -19 -60 -36
-44 -24 -250 -142 -328 -188 -9 -6 -64 -37 -122 -70 -58 -33 -112 -64 -121
-70 -9 -5 -43 -25 -75 -43 -32 -18 -108 -62 -169 -98 -60 -35 -119 -69 -130
-74 -11 -6 -36 -20 -55 -32 -19 -11 -55 -32 -80 -46 -25 -14 -57 -33 -72 -43
-14 -11 -28 -19 -30 -19 -6 0 -146 -81 -193 -112 -129 -84 -236 -207 -304
-351 -32 -67 -73 -177 -66 -177 2 0 -3 -24 -11 -52 -11 -44 -13 -266 -11
-1348 1 -712 6 -1306 9 -1319 28 -96 39 -132 40 -138 3 -11 75 -153 90 -178
45 -70 137 -171 203 -222 38 -29 241 -153 250 -153 3 0 33 -17 67 -38 35 -21
83 -50 108 -64 63 -36 311 -178 335 -193 11 -7 25 -13 30 -15 6 -1 21 -10 35
-20 14 -9 99 -60 190 -112 91 -53 210 -121 265 -153 55 -32 114 -65 130 -75
17 -9 89 -51 160 -92 72 -42 146 -85 165 -95 19 -11 80 -46 135 -78 55 -32
120 -69 145 -83 25 -14 56 -33 70 -42 45 -31 173 -88 245 -108 63 -19 119 -27
241 -36 134 -10 357 56 507 151 43 27 87 52 167 96 30 16 62 35 70 41 8 6 24
16 35 22 37 20 637 366 825 476 102 59 201 116 220 126 19 10 118 67 219 125
101 59 187 107 192 107 5 0 9 5 9 10 0 6 4 10 9 10 4 0 48 23 97 52 49 28 98
56 109 62 149 82 312 252 374 391 43 95 67 170 79 245 9 55 9 2581 1 2630 -15
83 -52 201 -75 237 -8 12 -14 27 -14 33 0 6 -5 16 -10 23 -6 7 -27 38 -48 69
-21 31 -54 74 -74 95 -41 44 -127 123 -133 123 -2 0 -35 20 -72 44 -37 24 -90
56 -118 70 -27 15 -63 36 -80 46 -16 10 -41 25 -55 33 -28 16 -99 56 -174 99
-28 15 -58 33 -66 38 -22 13 -118 69 -165 96 -22 12 -118 67 -214 123 -95 56
-175 101 -178 101 -2 0 -29 16 -60 36 -31 19 -65 40 -77 45 -12 5 -34 18 -51
29 -16 10 -41 25 -55 33 -46 25 -103 58 -363 208 -141 82 -262 149 -267 149
-6 0 -10 5 -10 10 0 6 -5 10 -10 10 -6 0 -35 16 -65 35 -30 19 -55 32 -55 30
0 -3 -10 1 -22 9 -28 18 -158 68 -158 61 0 -3 -10 -1 -21 6 -12 6 -33 13 -48
15 -38 7 -288 14 -293 9z m340 -1291 c147 -79 175 -100 222 -166 24 -35 47
-64 52 -66 4 -2 8 -8 8 -12 0 -8 63 -97 113 -160 7 -9 28 -38 47 -65 19 -28
38 -54 42 -60 5 -5 31 -41 58 -80 27 -38 56 -79 65 -90 8 -12 73 -102 144
-200 71 -99 134 -184 138 -190 5 -5 19 -26 33 -45 13 -19 27 -37 30 -40 3 -3
10 -12 15 -21 6 -9 18 -28 28 -42 21 -29 20 45 11 -1127 -7 -950 -10 -1133
-18 -1151 -4 -9 -39 -42 -79 -75 -40 -32 -73 -62 -75 -66 -2 -5 -10 -8 -18 -8
-9 0 -12 -4 -9 -10 3 -5 2 -10 -3 -10 -4 0 -17 -8 -28 -17 -10 -10 -42 -36
-69 -58 -28 -22 -59 -48 -70 -58 -46 -44 -86 -60 -175 -73 -19 -2 -82 -13
-140 -24 -117 -22 -112 -21 -305 -55 -77 -13 -156 -27 -175 -30 -19 -3 -42 -8
-50 -10 -20 -5 -87 -16 -125 -20 -16 -2 -41 2 -55 8 -14 5 -29 11 -35 13 -11
3 -211 74 -420 149 -71 26 -143 51 -160 56 -50 16 -64 33 -101 125 -20 49 -47
113 -60 142 -13 29 -24 55 -24 57 0 6 -91 228 -115 280 -46 103 -101 254 -99
271 2 10 6 42 9 69 3 28 8 68 11 90 3 22 7 56 9 75 3 40 15 133 20 170 2 14 7
54 10 90 4 36 9 73 10 82 2 9 6 43 10 75 3 32 8 76 11 98 3 22 7 63 10 90 7
67 10 91 19 150 4 28 8 68 10 90 2 22 6 58 9 80 3 22 8 60 11 85 11 103 16
147 22 185 3 22 6 51 8 65 7 68 17 157 20 170 2 8 6 49 10 90 4 41 9 84 12 95
2 11 5 29 7 40 3 20 35 72 274 435 74 113 182 277 240 365 146 225 175 265
188 273 7 4 96 8 199 10 l186 3 87 -47z"/>
<path d="M3080 5082 c-13 -2 -130 -162 -130 -177 0 -3 -5 -11 -11 -18 -6 -7
-79 -116 -162 -243 -84 -127 -187 -283 -229 -348 -43 -65 -78 -122 -78 -127 0
-5 -4 -9 -8 -9 -11 0 -52 -74 -52 -95 0 -9 31 -103 69 -208 38 -106 80 -223
94 -262 29 -82 7 -75 222 -74 6 0 71 0 145 0 272 -1 243 -7 288 52 22 29 48
61 58 72 11 11 39 45 64 75 25 30 47 57 50 60 15 13 59 77 56 81 -2 2 -7 36
-10 74 -4 39 -9 82 -11 98 -2 15 -6 55 -10 90 -4 34 -9 70 -10 79 -2 9 -6 43
-9 75 -7 68 -16 148 -21 183 -2 14 -7 52 -10 85 -4 33 -9 78 -12 100 -3 22 -6
54 -8 70 -1 17 -6 53 -9 80 -4 28 -9 68 -11 90 -2 22 -7 69 -11 105 -4 36 -7
72 -8 81 0 14 -16 16 -111 15 -61 0 -117 -2 -125 -4z"/>
<path d="M3397 5033 c-2 -5 -3 -17 -1 -28 5 -32 15 -114 20 -158 2 -23 6 -55
8 -72 8 -52 17 -128 21 -170 3 -41 13 -118 21 -170 3 -16 7 -48 9 -70 5 -49
14 -128 20 -175 9 -62 16 -126 20 -171 3 -24 7 -60 10 -79 2 -19 6 -47 8 -62
3 -25 36 -68 139 -179 18 -20 74 -80 123 -135 146 -160 164 -179 168 -174 2 3
64 86 137 185 73 99 148 200 167 225 37 48 51 89 35 99 -5 3 -51 65 -102 136
-51 72 -108 150 -126 175 -18 25 -85 117 -148 205 -63 88 -119 165 -123 170
-5 6 -24 33 -43 60 -19 28 -38 52 -41 55 -3 3 -21 28 -39 55 -19 28 -39 55
-45 62 -5 6 -32 44 -60 83 -38 54 -64 80 -108 106 -64 37 -64 37 -70 27z"/>
<path d="M2389 3859 c-1 -8 -2 -25 -4 -39 -8 -70 -16 -140 -20 -180 -2 -25 -7
-56 -9 -70 -3 -14 -7 -47 -10 -75 -8 -75 -16 -146 -22 -185 -3 -19 -7 -57 -10
-85 -2 -27 -6 -66 -9 -85 -5 -38 -15 -127 -20 -175 -1 -16 -5 -46 -8 -65 -4
-19 -9 -62 -12 -95 -3 -33 -7 -73 -9 -90 -7 -42 -17 -132 -22 -183 -2 -24 -6
-56 -9 -70 -9 -47 -19 -166 -18 -202 0 -19 20 -80 43 -135 23 -55 51 -122 62
-150 12 -27 27 -64 34 -80 18 -43 37 -89 39 -95 5 -18 35 -80 38 -80 2 0 5 28
6 63 2 34 4 82 6 107 4 46 10 148 20 300 2 47 7 123 10 170 3 47 8 121 11 165
2 44 7 107 9 140 2 33 6 98 9 145 8 130 16 269 21 335 2 33 7 113 11 178 3 65
7 126 9 135 1 9 -19 78 -46 152 -98 276 -98 277 -100 249z"/>
<path d="M3444 3714 c-27 -31 -53 -63 -58 -72 -5 -9 -31 -39 -57 -66 -101
-107 -99 -102 -99 -164 -1 -83 -7 -265 -15 -437 -4 -82 -8 -193 -10 -245 -2
-52 -4 -95 -5 -95 0 0 -3 -56 -5 -125 -3 -69 -7 -172 -9 -230 -7 -145 -17
-379 -21 -475 -13 -325 -17 -416 -19 -456 -3 -38 0 -46 13 -43 60 12 267 51
321 60 19 3 53 9 75 14 22 5 56 11 75 15 19 3 58 10 85 15 70 14 88 18 126 24
49 8 78 14 99 21 21 7 21 5 5 690 -5 244 -14 650 -20 947 -2 114 -7 214 -12
222 -7 12 -85 101 -163 186 -75 81 -131 143 -185 203 -32 37 -62 67 -65 67 -4
0 -29 -25 -56 -56z"/>
<path d="M4283 3703 c-15 -21 -31 -39 -35 -41 -5 -2 -8 -10 -8 -17 0 -7 -4
-15 -8 -17 -5 -1 -39 -46 -77 -98 -38 -52 -78 -107 -89 -121 -12 -14 -28 -36
-36 -49 -8 -12 -20 -27 -26 -33 -6 -7 -8 -26 -4 -49 4 -22 3 -38 -2 -38 -5 0
-6 -5 -2 -12 4 -6 8 -104 10 -217 2 -265 15 -1049 19 -1211 1 -69 3 -160 4
-202 1 -43 4 -78 9 -78 4 0 24 15 44 33 20 17 79 67 132 111 l96 78 1 67 c1
234 4 1931 2 1931 -1 0 -15 -17 -30 -37z"/>
<path d="M2609 3446 c0 0 -2 -28 -4 -61 -2 -33 -6 -96 -9 -140 -15 -216 -27
-402 -31 -485 -2 -36 -4 -65 -5 -65 0 0 -3 -38 -5 -85 -4 -79 -6 -115 -19
-310 -3 -41 -8 -118 -11 -170 -3 -52 -7 -117 -10 -145 -2 -27 -7 -93 -10 -145
-2 -52 -7 -135 -11 -184 -8 -120 -4 -130 53 -150 27 -10 57 -21 68 -26 11 -4
46 -17 78 -29 83 -31 149 -55 267 -99 58 -21 107 -38 108 -36 2 1 5 36 7 76 5
108 15 358 20 478 4 97 8 184 20 490 3 63 7 171 10 240 7 188 15 372 21 495 3
61 7 165 9 232 l3 123 -274 -1 c-151 -1 -274 -2 -275 -3z"/>
</g>
</svg>
